<svg xmlns="http://www.w3.org/2000/svg" width="24" height="24" viewBox="0 0 24 24" fill="none"><rect x="6" y="6" width="12" height="12" rx="2.5" fill="var(--icon-secondary, #DDE3E1)"/><path d="M8.5 6h7A2.5 2.5 0 0 1 18 8.5v7a2.5 2.5 0 0 1-2.5 2.5h-7A2.5 2.5 0 0 1 6 15.5v-7A2.5 2.5 0 0 1 8.5 6z" fill="none" stroke="var(--icon-primary, #4A7469)" stroke-width="2" stroke-linecap="round" stroke-linejoin="round"/><path d="M9.5 3v3M14.5 3v3M9.5 18v3M14.5 18v3M3 9.5h3M3 14.5h3M18 9.5h3M18 14.5h3" fill="none" stroke="var(--icon-primary, #4A7469)" stroke-width="2" stroke-linecap="round" stroke-linejoin="round"/><rect x="10" y="10" width="4" height="4" rx="1" fill="var(--icon-primary, #4A7469)"/></svg>
